<?xml version="1.0" encoding="UTF-8" standalone="no"?><!DOCTYPE svg PUBLIC "-//W3C//DTD SVG 1.1//EN" "http://www.w3.org/Graphics/SVG/1.1/DTD/svg11.dtd"><svg width="100%" height="100%" viewBox="0 0 50 50" version="1.1" xmlns="http://www.w3.org/2000/svg" xmlns:xlink="http://www.w3.org/1999/xlink" xml:space="preserve" xmlns:serif="http://www.serif.com/" style="fill-rule:evenodd;clip-rule:evenodd;stroke-linejoin:round;stroke-miterlimit:2;"><rect id="Artboard1" x="0" y="0" width="50" height="50" style="fill:none;"/><g><path d="M16.094,21.563l-8.125,8.125l8.125,8.125l2.187,-2.188l-5.937,-5.937l5.937,-5.938l-2.187,-2.187Z" style="fill-rule:nonzero;"/><path d="M31.719,23.75l5.937,5.938l-5.937,5.937l2.187,2.188l8.125,-8.125l-8.125,-8.125l-2.187,2.187Z" style="fill-rule:nonzero;"/><path d="M19.628,39.305l2.931,1.086l7.814,-21.099l-2.931,-1.085l-7.814,21.098Z"/><path d="M46.875,0l-43.75,0c-1.719,0 -3.125,1.406 -3.125,3.125l0,43.75c0,1.719 1.406,3.125 3.125,3.125l43.75,0c1.719,0 3.125,-1.406 3.125,-3.125l-0,-43.75c-0,-1.719 -1.406,-3.125 -3.125,-3.125Zm-43.75,46.875l-0,-34.375l43.75,0l-0,34.375l-43.75,0Zm-0,-37.5l-0,-6.25l43.75,0l-0,6.25l-43.75,0Z" style="fill-rule:nonzero;"/><circle cx="6.25" cy="6.25" r="1.563"/><circle cx="10.156" cy="6.25" r="1.563"/><circle cx="14.062" cy="6.25" r="1.563"/></g></svg>