<?xml version="1.0" encoding="UTF-8" standalone="no"?><!DOCTYPE svg PUBLIC "-//W3C//DTD SVG 1.1//EN" "http://www.w3.org/Graphics/SVG/1.1/DTD/svg11.dtd"><svg width="100%" height="100%" viewBox="0 0 17 17" version="1.1" xmlns="http://www.w3.org/2000/svg" xmlns:xlink="http://www.w3.org/1999/xlink" xml:space="preserve" xmlns:serif="http://www.serif.com/" style="fill-rule:evenodd;clip-rule:evenodd;stroke-linejoin:round;stroke-miterlimit:2;"><rect id="Artboard1" x="0" y="0" width="16.859" height="16.054" style="fill:none;"/><path d="M16.794,6.215c0,-0.249 -0.188,-0.403 -0.565,-0.464l-5.061,-0.736l-2.268,-4.587c-0.128,-0.276 -0.293,-0.414 -0.494,-0.414c-0.202,0 -0.366,0.138 -0.494,0.414l-2.269,4.587l-5.061,0.736c-0.376,0.061 -0.565,0.215 -0.565,0.464c0,0.141 0.084,0.302 0.253,0.484l3.669,3.569l-0.867,5.041c-0.013,0.094 -0.02,0.161 -0.02,0.202c-0,0.141 0.035,0.26 0.106,0.358c0.07,0.097 0.176,0.146 0.317,0.146c0.121,-0 0.256,-0.04 0.403,-0.121l4.527,-2.38l4.527,2.38c0.142,0.081 0.276,0.121 0.404,0.121c0.134,-0 0.237,-0.049 0.307,-0.146c0.071,-0.098 0.106,-0.217 0.106,-0.358c-0,-0.088 -0.003,-0.155 -0.01,-0.202l-0.868,-5.041l3.66,-3.569c0.175,-0.175 0.262,-0.336 0.262,-0.484" style="fill:#f5c518;fill-rule:nonzero;"/></svg>